#!OML:ASF X:\für Bonn\!DataBase\2005_08_10_Bjorn_Final\c3d\bjorn.ASF
:FULLY-SPECIFIED
:DEGREES
112
root 3.89796 17.8483 2.00106 -209.923 -17.243 176.436
lowerback 28.5355 6.44008 -6.92377
upperback 19.2547 0.861969 -3.7814
thorax 5.7483 -2.52812 -0.763047
lowerneck -9.62184 -3.33738 -4.93323
upperneck 3.57489 -5.10182 13.6131
head 3.1416 -2.23851 4.6612
rclavicle 4.69132e-014 1.01778e-013
rhumerus -34.518 -5.49424 -85.2273
rradius 51.6756
rwrist 3.27235
rhand -19.9075 20.2883
rfingers 7.12502
rthumb 6.42916 -9.59409
lclavicle 4.69132e-014 1.01778e-013
lhumerus 23.3271 -23.0877 36.247
lradius 85.1622
lwrist 10.1123
lhand -52.4754 -19.6913
lfingers 7.12502
lthumb -24.9631 8.69804
rfemur 15.6212 -5.9618 15.3689
rtibia 43.2954
rfoot -25.3544 9.84852
rtoes -12.6836
lfemur -93.7212 8.23605 -33.9823
ltibia 115.748
lfoot -18.0995 5.17403
ltoes -22.1793
113
root 3.91332 17.7864 1.95202 -210.896 -16.6769 176.904
lowerback 28.5451 6.99818 -6.82109
upperback 19.8425 1.37158 -3.55183
thorax 6.38016 -2.41854 -0.733821
lowerneck -9.56782 -3.45969 -5.06231
upperneck 2.88431 -5.28468 14.3797
head 2.97522 -2.35319 4.90998
rclavicle 3.73715e-014 6.67916e-014
rhumerus -35.533 -4.42577 -84.4039
rradius 53.2435
rwrist 2.79605
rhand -20.4923 20.4656
rfingers 7.12502
rthumb 5.8645 -9.43323
lclavicle 3.73715e-014 6.67916e-014
lhumerus 25.7496 -19.916 34.9305
lradius 87.6354
lwrist 10.2819
lhand -53.5093 -20.1194
lfingers 7.12502
lthumb -25.9535 8.12863
rfemur 16.3865 -6.2105 15.7258
rtibia 43.7678
rfoot -25.5709 10.5021
rtoes -12.2706
lfemur -95.4346 9.00031 -35.6513
ltibia 112.107
lfoot -18.4194 6.88215
ltoes -22.0425
114
root 3.9269 17.7273 1.90025 -211.896 -15.9696 177.46
lowerback 28.4136 7.50982 -6.56473
upperback 20.4115 1.88738 -3.33162
thorax 7.05557 -2.2828 -0.790354
lowerneck -9.48691 -3.54619 -5.11039
upperneck 2.39636 -5.44272 15.086
head 2.86035 -2.45347 5.12895
rclavicle -2.3059e-014 -3.49861e-014
rhumerus -36.574 -3.47752 -83.6743
rradius 54.6792
rwrist 2.19249
rhand -20.9645 20.6416
rfingers 7.12502
rthumb 5.40862 -9.2694
lclavicle -2.3059e-014 -3.49861e-014
lhumerus 27.9486 -16.6644 33.9237
lradius 90.2257
lwrist 11.3354
lhand -53.4383 -19.9222
lfingers 7.12502
lthumb -25.8856 8.3358
rfemur 17.2236 -6.37922 16.2746
rtibia 44.118
rfoot -25.7735 11.0713
rtoes -11.9612
lfemur -96.8718 9.98585 -37.4302
ltibia 108.243
lfoot -18.0179 8.52166
ltoes -20.4302
115
root 3.93544 17.6743 1.84951 -212.832 -15.1654 178.014
lowerback 28.1318 7.95294 -6.22999
upperback 20.9128 2.38266 -3.14148
thorax 7.72755 -2.12748 -0.903911
lowerneck -9.36666 -3.58873 -5.1264
upperneck 2.16182 -5.55924 15.6988
head 2.80674 -2.52645 5.31679
rclavicle -3.18055e-014 -4.6118e-014
rhumerus -37.5939 -2.60868 -82.9998
rradius 55.8724
rwrist 1.51417
rhand -21.2737 20.8603
rfingers 7.12502
rthumb 5.11007 -9.05813
lclavicle -3.18055e-014 -4.6118e-014
lhumerus 29.8806 -13.316 33.2839
lradius 92.7356
lwrist 12.2583
lhand -53.0379 -18.9086
lfingers 7.12502
lthumb -25.5021 9.40477
rfemur 18.0421 -6.53677 16.8224
rtibia 44.3795
rfoot -25.8666 11.7022
rtoes -11.5632
lfemur -97.9167 11.1289 -39.2761
ltibia 104.042
lfoot -17.0607 9.72882
ltoes -20.4671
116
root 3.93955 17.6166 1.79373 -213.722 -14.3129 178.542
lowerback 27.7567 8.29434 -5.88629
upperback 21.2381 2.82774 -3.03051
thorax 8.25195 -1.94962 -1.07581
lowerneck -8.58423 -3.50655 -5.20116
upperneck 1.90301 -5.50811 16.4036
head 2.62206 -2.54491 5.56423
rclavicle -6.20208e-014 2.06736e-014
rhumerus -38.8398 -1.70132 -82.458
rradius 56.9198
rwrist 0.584722
rhand -21.3966 21.1467
rfingers 7.12502
rthumb 4.99139 -8.77448
lclavicle -6.20208e-014 2.06736e-014
lhumerus 31.3514 -10.1379 32.88
lradius 95.0772
lwrist 12.5409
lhand -52.6957 -17.2681
lfingers 7.12502
lthumb -25.1742 11.0918
rfemur 18.8961 -6.70631 17.3292
rtibia 44.5458
rfoot -25.9256 12.3977
rtoes -11.1009
lfemur -98.529 12.3162 -41.1502
ltibia 99.5447
lfoot -16.2014 10.2402
ltoes -24.4706
117
root 3.93595 17.5616 1.7335 -214.575 -13.3138 179.125
lowerback 27.2013 8.5345 -5.29795
upperback 21.4946 3.25562 -3.0086
thorax 8.80234 -1.72111 -1.45219
lowerneck -7.29015 -3.33446 -5.30363
upperneck 1.48043 -5.3283 17.2399
head 2.29217 -2.53546 5.87422
rclavicle 3.4191e-014 -1.63799e-013
rhumerus -40.0149 -0.872215 -82.0782
rradius 57.7288
rwrist -0.555514
rhand -21.3199 21.4356
rfingers 7.12502
rthumb 5.06547 -8.4839
lclavicle 3.4191e-014 -1.63799e-013
lhumerus 32.6007 -7.10195 32.6343
lradius 97.2244
lwrist 12.4026
lhand -52.3266 -15.5611
lfingers 7.12502
lthumb -24.8205 12.848
rfemur 19.765 -6.85829 17.899
rtibia 44.6317
rfoot -25.9162 13.1405
rtoes -10.5512
lfemur -98.6732 13.5967 -42.6394
ltibia 94.7527
lfoot -15.8423 9.24059
ltoes -26.6798
118
root 3.92869 17.5309 1.68131 -215.37 -12.1579 179.771
lowerback 26.4081 8.66743 -4.47541
upperback 21.7628 3.6291 -3.0009
thorax 9.50348 -1.47835 -1.94634
lowerneck -5.87383 -3.11715 -5.573
upperneck 1.03519 -5.05607 18.0616
head 1.9237 -2.49322 6.21658
rclavicle -3.10104e-014 -3.97569e-014
rhumerus -40.8403 0.0319371 -81.7312
rradius 58.1532
rwrist -1.8947
rhand -21.0636 21.7551
rfingers 7.12502
rthumb 5.31298 -8.15832
lclavicle -3.10104e-014 -3.97569e-014
lhumerus 33.581 -4.04454 32.696
lradius 99.3454
lwrist 12.2485
lhand -51.929 -14.6714
lfingers 7.12502
lthumb -24.4395 13.7896
rfemur 20.6067 -6.97692 18.5747
rtibia 44.6184
rfoot -25.8079 13.9442
rtoes -9.9064
lfemur -98.4811 15.2233 -44.0049
ltibia 89.6524
lfoot -15.1073 6.91901
ltoes -26.0601
119
root 3.91599 17.4949 1.62517 -216.103 -10.949 180.419
lowerback 25.4457 8.67603 -3.49969
upperback 22.0204 3.88827 -3.0485
thorax 10.3094 -1.25339 -2.55304
lowerneck -4.45242 -2.85747 -5.74681
upperneck 0.688798 -4.70883 18.5599
head 1.55616 -2.41159 6.44389
rclavicle 6.12257e-014 -4.45278e-014
rhumerus -41.3001 1.13289 -81.4936
rradius 58.1484
rwrist -3.41242
rhand -20.8371 22.0323
rfingers 7.12502
rthumb 5.5316 -7.87546
lclavicle 6.12257e-014 -4.45278e-014
lhumerus 34.2432 -1.04109 32.9021
lradius 101.356
lwrist 11.9937
lhand -51.7639 -14.536
lfingers 7.12502
lthumb -24.2812 13.9463
rfemur 21.4351 -7.09229 19.2564
rtibia 44.5692
rfoot -25.7031 14.7512
rtoes -9.26583
lfemur -97.9172 16.9206 -45.1573
ltibia 84.2453
lfoot -13.4481 3.9501
ltoes -23.9082
120
root 3.89719 17.4517 1.56305 -216.782 -9.73736 180.984
lowerback 24.4213 8.61896 -2.46952
upperback 22.215 4.07983 -3.16989
thorax 11.1106 -1.02663 -3.25244
lowerneck -3.11816 -2.56884 -5.68354
upperneck 0.646214 -4.34349 18.6892
head 1.26941 -2.30062 6.50907
rclavicle -6.36111e-014 -2.38542e-014
rhumerus -41.5201 2.3178 -81.3722
rradius 57.6892
rwrist -4.87066
rhand -20.811 22.1761
rfingers 7.12502
rthumb 5.55679 -7.73108
lclavicle -6.36111e-014 -2.38542e-014
lhumerus 34.5367 1.52342 32.9363
lradius 103.179
lwrist 12.392
lhand -51.7443 -15.8785
lfingers 7.12502
lthumb -24.2624 12.6063
rfemur 22.2812 -7.26007 19.7452
rtibia 44.4912
rfoot -25.5201 15.716
rtoes -8.47779
lfemur -96.8387 18.6557 -45.9145
ltibia 78.479
lfoot -10.6289 0.53158
ltoes -20.0762
121
root 3.8743 17.4142 1.50341 -217.453 -8.55324 181.44
lowerback 23.4498 8.52954 -1.42673
upperback 22.3271 4.22474 -3.37299
thorax 11.8271 -0.794387 -4.03985
lowerneck -1.96346 -2.23404 -5.48009
upperneck 1.10647 -3.99191 18.7244
head 1.15325 -2.1671 6.51158
rclavicle 3.26007e-014 1.11319e-014
rhumerus -41.5911 3.53241 -81.38
rradius 56.869
rwrist -6.16776
rhand -20.8758 22.2684
rfingers 7.12502
rthumb 5.49431 -7.64037
lclavicle 3.26007e-014 1.11319e-014
lhumerus 34.4271 3.60975 32.7721
lradius 104.746
lwrist 12.4341
lhand -51.893 -17.1632
lfingers 7.12502
lthumb -24.4049 11.3025
rfemur 23.183 -7.50637 19.9669
rtibia 44.3795
rfoot -25.2469 16.8945
rtoes -7.45065
lfemur -95.3682 20.4132 -46.247
ltibia 72.4114
lfoot -6.29429 -2.33722
ltoes -19.6956
